# xmcd
#
# Track frame offsets:
# 150
# 15517
# 29336
# 46602
# 63925
# 76803
# 91351
# 107226
# 121218
# 137238
# 148913
# 165911
#
# Disc length: 2466 seconds
#
# Revision: 2
# Processed by: cddbd v1.4PL0 Copyright (c) Steve Scherf et al.
# Submitted via: Axialis_AX_CDPlayer 2.6
#
DISCID=9209a00c
DTITLE=George Jones - The Rock: Stone Cold Country 2001
DYEAR=1900
DGENRE=
TTITLE0=The Rock
TTITLE1=Beer Run/ Double E Double Are you In?
TTITLE2=Wood and Wire
TTITLE3=50,000 Names
TTITLE4=The Man He Was
TTITLE5=I got Everything
TTITLE6=Half Over You
TTITLE7=I Am
TTITLE8=
TTITLE9=
TTITLE10=
TTITLE11=
EXTD=
EXTT0=
EXTT1=
EXTT2=
EXTT3=
EXTT4=
EXTT5=
EXTT6=
EXTT7=
EXTT8=
EXTT9=
EXTT10=
EXTT11=
PLAYORDER=
